# xmcd
#
# Track frame offsets: 
#        150
#        18132
#        39160
#        58045
#        74395
#        94037
#        115515
#        139062
#        160987
#        174375
#        193062
#        210575
#        229735
#        249810
#        266077
#        288057
#        306365
#        326890
#
# Disc length: 4666 seconds
#
# Revision: 2
# Processed by: cddbd v1.5.2PL0 Copyright (c) Steve Scherf et al.
# Submitted via: ExactAudioCopyFreeDBPlugin 1.0
#
DISCID=f4123812
DTITLE=John Hiatt - Greatest Hits
DYEAR=1994
DGENRE=Blues
TTITLE0=Memphis In The Meantime
TTITLE1=Perfectly Good Guitar
TTITLE2=Thing Called Love
TTITLE3=Slow Turning
TTITLE4=Real Fine Love
TTITLE5=Through Your Hands
TTITLE6=Buffalo River Home
TTITLE7=Feels Like Rain
TTITLE8=Tennessee Plates
TTITLE9=Thank You Girl
TTITLE10=Drive South
TTITLE11=Lipstick Sunset
TTITLE12=Child Of The Wild Blue Yonder
TTITLE13=Paper Thin
TTITLE14=The Rest Of The Dream
TTITLE15=Have A Little Faith In Me
TTITLE16=Something Wild
TTITLE17=Angel Eyes
EXTD=
EXTT0=
EXTT1=
EXTT2=
EXTT3=
EXTT4=
EXTT5=
EXTT6=
EXTT7=
EXTT8=
EXTT9=
EXTT10=
EXTT11=
EXTT12=
EXTT13=
EXTT14=
EXTT15=
EXTT16=
EXTT17=
PLAYORDER=
